<svg>
        <symbol viewBox="0 0 448 512" id="arrow-right">
          <path d="M313.941 216H12c-6.627 0-12 5.373-12 12v56c0 6.627 5.373 12 12 12h301.941v46.059c0 21.382 25.851 32.09 40.971 16.971l86.059-86.059c9.373-9.373 9.373-24.569 0-33.941l-86.059-86.059c-15.119-15.119-40.971-4.411-40.971 16.971V216z"/>
        </symbol>
        <symbol viewBox="0 0 448 512" id="arrow-left">
          <path d="M134.059 296H436c6.627 0 12-5.373 12-12v-56c0-6.627-5.373-12-12-12H134.059v-46.059c0-21.382-25.851-32.09-40.971-16.971L7.029 239.029c-9.373 9.373-9.373 24.569 0 33.941l86.059 86.059c15.119 15.119 40.971 4.411 40.971-16.971V296z"></path>
        </symbol>
        <symbol viewBox="0 0 256 512" id="arrow-up">
          <path d="M88 166.059V468c0 6.627 5.373 12 12 12h56c6.627 0 12-5.373 12-12V166.059h46.059c21.382 0 32.09-25.851 16.971-40.971l-86.059-86.059c-9.373-9.373-24.569-9.373-33.941 0l-86.059 86.059c-15.119 15.119-4.411 40.971 16.971 40.971H88z"></path>
        </symbol>
        <symbol viewBox="0 0 512.12 512.12" id="android-icon">
          <g>
            <path d="M74.727,170.787c-17.673,0-32,14.327-32,32V352.12c0,17.673,14.327,32,32,32s32-14.327,32-32
              V202.787C106.727,185.114,92.4,170.787,74.727,170.787z"/>
            <path d="M437.393,170.787c-17.673,0-32,14.327-32,32V352.12c0,17.673,14.327,32,32,32s32-14.327,32-32
              V202.787C469.393,185.114,455.067,170.787,437.393,170.787z"/>
            <path d="M373.393,170.787H138.727c-5.891,0-10.667,4.776-10.667,10.667V352.12
              c-0.005,25.348,17.831,47.197,42.667,52.267v75.733c0,17.673,14.327,32,32,32s32-14.327,32-32v-74.667h42.667v74.667
              c0,17.673,14.327,32,32,32s32-14.327,32-32v-75.733c24.836-5.07,42.672-26.919,42.667-52.267V181.454
              C384.06,175.563,379.284,170.787,373.393,170.787z"/>
            <path d="M333.607,44.323l26.005-25.984c4.237-4.093,4.354-10.845,0.262-15.083
              c-4.093-4.237-10.845-4.354-15.083-0.262c-0.089,0.086-0.176,0.173-0.262,0.262L314.236,33.55
              c-37.102-16.117-79.229-16.117-116.331,0L167.612,3.235c-4.237-4.093-10.99-3.975-15.083,0.262c-3.992,4.134-3.992,10.687,0,14.82
              l25.984,26.005c-31.677,20.96-50.649,56.481-50.453,94.464c0,5.891,4.776,10.667,10.667,10.667h234.667
              c5.891,0,10.667-4.776,10.667-10.667C384.256,100.804,365.284,65.283,333.607,44.323z"/>
              <circle style="fill: #fafafa;" cx="202.727" cy="96.12" r="10.667"/>
              <circle style="fill: #fafafa;" cx="309.393" cy="96.12" r="10.667"/>
          </g>

        </symbol>
        <symbol viewBox="0 0 448 512" id="apple-icon">
          <path d="M318.7 268.7c-.2-36.7 16.4-64.4 50-84.8-18.8-26.9-47.2-41.7-84.7-44.6-35.5-2.8-74.3 20.7-88.5 20.7-15 0-49.4-19.7-76.4-19.7C63.3 141.2 4 184.8 4 273.5q0 39.3 14.4 81.2c12.8 36.7 59 126.7 107.2 125.2 25.2-.6 43-17.9 75.8-17.9 31.8 0 48.3 17.9 76.4 17.9 48.6-.7 90.4-82.5 102.6-119.3-65.2-30.7-61.7-90-61.7-91.9zm-56.6-164.2c27.3-32.4 24.8-61.9 24-72.5-24.1 1.4-52 16.4-67.9 34.9-17.5 19.8-27.8 44.3-25.6 71.9 26.1 2 49.9-11.4 69.5-34.3z"></path>
        </symbol>
        <symbol viewBox="0 0 448 512" id="windows-icon">
          <path d="M0 93.7l183.6-25.3v177.4H0V93.7zm0 324.6l183.6 25.3V268.4H0v149.9zm203.8 28L448 480V268.4H203.8v177.9zm0-380.6v180.1H448V32L203.8 65.7z"></path>
        </symbol>
        <symbol viewBox="0 0 24 24" id="fb-icon">
          <path d="m15.997 3.985h2.191v-3.816c-.378-.052-1.678-.169-3.192-.169-3.159 0-5.323 1.987-5.323 5.639v3.361h-3.486v4.266h3.486v10.734h4.274v-10.733h3.345l.531-4.266h-3.877v-2.939c.001-1.233.333-2.077 2.051-2.077z"/>
        </symbol>
        <symbol viewBox="0 0 512 512" id="twi-icon">
          <path d="M512,97.248c-19.04,8.352-39.328,13.888-60.48,16.576c21.76-12.992,38.368-33.408,46.176-58.016
          c-20.288,12.096-42.688,20.64-66.56,25.408C411.872,60.704,384.416,48,354.464,48c-58.112,0-104.896,47.168-104.896,104.992
          c0,8.32,0.704,16.32,2.432,23.936c-87.264-4.256-164.48-46.08-216.352-109.792c-9.056,15.712-14.368,33.696-14.368,53.056
          c0,36.352,18.72,68.576,46.624,87.232c-16.864-0.32-33.408-5.216-47.424-12.928c0,0.32,0,0.736,0,1.152
          c0,51.008,36.384,93.376,84.096,103.136c-8.544,2.336-17.856,3.456-27.52,3.456c-6.72,0-13.504-0.384-19.872-1.792
          c13.6,41.568,52.192,72.128,98.08,73.12c-35.712,27.936-81.056,44.768-130.144,44.768c-8.608,0-16.864-0.384-25.12-1.44
          C46.496,446.88,101.6,464,161.024,464c193.152,0,298.752-160,298.752-298.688c0-4.64-0.16-9.12-0.384-13.568
          C480.224,136.96,497.728,118.496,512,97.248z"/>
        </symbol>
        <symbol viewBox="0 0 512 512" id="dribble-icon">
          <path d="M256,0C115.04,0,0,115.05,0,256c0,140.96,115.05,256,256,256c140.96,0,256-115.05,256-256C512,115.04,396.95,0,256,0z   M429.64,111.51c31.96,38.34,51.47,87.39,52.31,140.89c-40.06-9.37-84.55-10-129.86-1.74c-11.79,2.15-23.58,4.88-35.3,8.16  c-3.9-10.61-8.04-21.13-12.44-31.55c-4.49-10.63-9.23-21.08-14.19-31.38C344.15,175.27,402.65,144.57,429.64,111.51z M256,30  c58.82,0,112.45,22.59,152.7,59.54C393,110.95,348.26,142.12,276.48,169c-25.06-46.66-55.11-89.54-89.83-128.1  C208.51,33.83,231.82,30,256,30z M156.95,52.9c35.41,37.93,65.87,80.29,90.96,126.05c-74.68,24.17-150.29,34.03-212.46,27.66  C50.59,138.96,96.14,82.67,156.95,52.9z M30,256c0-6.64,0.31-13.21,0.87-19.7c13.72,1.45,28.03,2.18,42.82,2.18  c58.33,0,123.86-11.22,188.21-32.53c9.82,20.1,18.65,40.78,26.44,61.97c-25.09,9.02-49.51,20.49-72.44,34.14  c-56.22,33.47-97.35,76.53-114.41,118.71C57.52,379.51,30,320.91,30,256z M256,482c-48.29,0-93.09-15.23-129.86-41.14  c11.4-38.52,49.96-80.19,105.11-113.02c19.43-11.58,42.15-22.49,66.88-31.36c17.53,55.1,28.27,113.26,31.68,173.13  C306.67,477.63,281.84,482,256,482z M359.07,457.1c-4.16-58.32-15.02-115.1-32.45-169.64c48.6-13.36,102.58-17.84,153.77-4.56  C471.33,358.91,424.41,423.47,359.07,457.1z"/>
        </symbol>
        <symbol viewBox="0 0 95.802 95.802" id="be-icon">
          <path d="M38.664,44.689c0,0,9.065-0.673,9.065-11.306c0-10.632-7.417-15.819-16.813-15.819H13.622h-0.508H0v59.414h13.114h0.508
          h17.294c0,0,18.873,0.597,18.873-17.536C49.79,59.442,50.613,44.689,38.664,44.689z M13.622,28.125h15.069h2.226
          c0,0,4.203,0,4.203,6.181c0,6.181-2.473,7.077-5.275,7.077H13.622V28.125z M30.119,66.42H13.622V50.541h17.294
          c0,0,6.264-0.08,6.264,8.16C37.18,65.572,32.599,66.351,30.119,66.42z"/>
          <rect x="62.18" y="21.064" width="24.514" height="7.317"/>
          <path d="M74.961,32.682c-22.848,0-22.828,22.826-22.828,22.826s-1.566,22.713,22.829,22.713c0,0,20.331,1.162,20.331-15.801
            H84.837c0,0,0.349,6.391-9.526,6.391c0,0-10.455,0.699-10.455-10.34h30.785C95.641,58.471,99.009,32.682,74.961,32.682z
            M84.255,50.541H64.738c0,0,1.277-9.158,10.455-9.158C84.372,41.382,84.255,50.541,84.255,50.541z"/>
        </symbol>
      </svg>
